<svg width="43" height="31" viewBox="0 0 43 31" fill="none" xmlns="http://www.w3.org/2000/svg">
<path d="M35.6797 16.4258C36.7995 16.7383 37.75 17.0964 38.5312 17.5C39.3255 17.9036 39.9896 18.3268 40.5234 18.7695C41.0703 19.1992 41.5 19.6419 41.8125 20.0977C42.125 20.5534 42.3659 20.9896 42.5352 21.4062C42.7044 21.8229 42.8086 22.2135 42.8477 22.5781C42.8997 22.9297 42.9258 23.2292 42.9258 23.4766C42.9258 24.388 42.75 25.2018 42.3984 25.918C42.0599 26.6341 41.5977 27.2656 41.0117 27.8125C40.4258 28.3594 39.7422 28.8216 38.9609 29.1992C38.1927 29.5768 37.3854 29.8828 36.5391 30.1172C35.6927 30.3646 34.8268 30.5404 33.9414 30.6445C33.056 30.7617 32.2161 30.8203 31.4219 30.8203C30.1328 30.8203 28.7982 30.6901 27.418 30.4297C26.0508 30.1693 24.6641 29.7461 23.2578 29.1602C22.9453 29.0299 22.7891 28.8021 22.7891 28.4766C22.7891 28.2552 22.8672 28.0794 23.0234 27.9492C23.1797 27.806 23.349 27.7344 23.5312 27.7344C23.6224 27.7344 23.7201 27.7539 23.8242 27.793C25.0352 28.3008 26.2786 28.6849 27.5547 28.9453C28.8307 29.2057 30.1133 29.3359 31.4023 29.3359C33.1602 29.3359 34.6706 29.1667 35.9336 28.8281C37.1966 28.4896 38.2318 28.0469 39.0391 27.5C39.8594 26.9401 40.4648 26.3151 40.8555 25.625C41.2461 24.9219 41.4414 24.2122 41.4414 23.4961C41.4414 22.7018 41.2201 21.9661 40.7773 21.2891C40.3477 20.612 39.7292 20.0065 38.9219 19.4727C38.1276 18.9388 37.1706 18.4831 36.0508 18.1055C34.931 17.7279 33.6875 17.4479 32.3203 17.2656C31.4219 17.4219 30.5495 17.5326 29.7031 17.5977C28.8568 17.6628 28.0755 17.6953 27.3594 17.6953H26.9102C26.819 17.6953 26.7344 17.6888 26.6562 17.6758C25.7188 19.9284 24.599 21.875 23.2969 23.5156C22.0078 25.1562 20.6276 26.5169 19.1562 27.5977C17.6979 28.6654 16.194 29.4596 14.6445 29.9805C13.1081 30.4883 11.6302 30.7422 10.2109 30.7422C8.73958 30.7422 7.38542 30.5339 6.14844 30.1172C4.92448 29.7135 3.86979 29.1341 2.98438 28.3789C2.09896 27.6237 1.40885 26.7122 0.914062 25.6445C0.419271 24.5638 0.171875 23.3594 0.171875 22.0312C0.171875 20.651 0.438802 19.2253 0.972656 17.7539C1.51953 16.2695 2.32682 14.7656 3.39453 13.2422C4.41016 11.8099 5.53646 10.5273 6.77344 9.39453C8.01042 8.2487 9.30599 7.24609 10.6602 6.38672C12.0273 5.52734 13.4336 4.79167 14.8789 4.17969C16.3242 3.56771 17.7565 3.06641 19.1758 2.67578C20.6081 2.28516 22.0013 2.00521 23.3555 1.83594C24.7227 1.65365 26.0052 1.5625 27.2031 1.5625C28.1797 1.5625 29.1107 1.59505 29.9961 1.66016C30.8815 1.72526 31.7279 1.82292 32.5352 1.95312C33.0039 1.43229 33.3815 1.0612 33.668 0.839844C33.9544 0.605469 34.1172 0.47526 34.1562 0.449219C34.3125 0.371094 34.4492 0.332031 34.5664 0.332031C34.7487 0.332031 34.9115 0.384115 35.0547 0.488281C35.1979 0.592448 35.2695 0.742188 35.2695 0.9375C35.2695 1.19792 35.1784 1.41927 34.9961 1.60156C34.8138 1.77083 34.5664 2.00521 34.2539 2.30469C36.6367 2.89062 38.4596 3.77604 39.7227 4.96094C40.9857 6.13281 41.6172 7.58464 41.6172 9.31641C41.6172 10.2669 41.4609 11.1198 41.1484 11.875C40.8359 12.6302 40.4062 13.2943 39.8594 13.8672C39.3255 14.4401 38.694 14.9414 37.9648 15.3711C37.2487 15.7878 36.487 16.1393 35.6797 16.4258ZM32.3398 15.7812C32.9128 15.6771 33.4987 15.5404 34.0977 15.3711C34.7096 15.2018 35.3021 15 35.875 14.7656C36.4609 14.5182 37.0143 14.2318 37.5352 13.9062C38.056 13.5677 38.5052 13.1771 38.8828 12.7344C39.2734 12.2786 39.5794 11.7708 39.8008 11.2109C40.0352 10.651 40.1523 10.013 40.1523 9.29688C40.1523 7.83854 39.5469 6.63411 38.3359 5.68359C37.125 4.73307 35.3867 4.02995 33.1211 3.57422C32.4701 4.38151 31.8581 5.27344 31.2852 6.25C30.7122 7.22656 30.1849 8.24219 29.7031 9.29688C29.2214 10.3385 28.7852 11.3997 28.3945 12.4805C28.0169 13.5482 27.7044 14.5833 27.457 15.5859C27.7174 15.5729 27.9583 15.5664 28.1797 15.5664C28.401 15.5664 28.5898 15.5664 28.7461 15.5664C29.2539 15.5664 29.8073 15.5859 30.4062 15.625C31.0052 15.651 31.6497 15.7031 32.3398 15.7812ZM31.4609 3.30078C30.7969 3.20964 30.1133 3.14453 29.4102 3.10547C28.707 3.06641 27.9714 3.04688 27.2031 3.04688C26.0573 3.04688 24.8398 3.13151 23.5508 3.30078C22.2617 3.47005 20.9401 3.73698 19.5859 4.10156C18.2318 4.46615 16.8646 4.94141 15.4844 5.52734C14.1172 6.10026 12.7826 6.79688 11.4805 7.61719C10.1914 8.42448 8.96094 9.36849 7.78906 10.4492C6.61719 11.5299 5.54948 12.7474 4.58594 14.1016C3.60938 15.4818 2.8737 16.8424 2.37891 18.1836C1.88411 19.5247 1.63672 20.8008 1.63672 22.0117C1.63672 23.1445 1.83854 24.1602 2.24219 25.0586C2.65885 25.957 3.24479 26.7188 4 27.3438C4.75521 27.9557 5.66016 28.431 6.71484 28.7695C7.76953 29.0951 8.9349 29.2578 10.2109 29.2578C11.487 29.2578 12.8151 29.0299 14.1953 28.5742C15.5755 28.1055 16.9232 27.3958 18.2383 26.4453C19.5534 25.4818 20.8034 24.2708 21.9883 22.8125C23.1732 21.3411 24.2083 19.5964 25.0938 17.5781C24.8594 17.5781 24.6185 17.513 24.3711 17.3828C24.1237 17.2396 24 17.0182 24 16.7188C24 16.4062 24.1497 16.1849 24.4492 16.0547C24.7487 15.9115 25.2174 15.7943 25.8555 15.7031C26.207 14.6354 26.5651 13.5677 26.9297 12.5C27.2943 11.4323 27.6979 10.3776 28.1406 9.33594C28.5833 8.29427 29.0716 7.27214 29.6055 6.26953C30.1393 5.25391 30.7578 4.26432 31.4609 3.30078Z" fill="white"/>
</svg>
