<svg width="67" height="43" viewBox="0 0 67 43" fill="none" xmlns="http://www.w3.org/2000/svg">
<path d="M31.0947 14.1226C32.0745 14.396 32.9062 14.7093 33.5898 15.0625C34.2848 15.4157 34.8659 15.786 35.333 16.1733C35.8115 16.5493 36.1875 16.9367 36.4609 17.3354C36.7344 17.7342 36.9451 18.1159 37.0933 18.4805C37.2414 18.8451 37.3325 19.1868 37.3667 19.5059C37.4123 19.8135 37.4351 20.0755 37.4351 20.292C37.4351 21.0895 37.2812 21.8016 36.9736 22.4282C36.6774 23.0549 36.2729 23.6074 35.7603 24.0859C35.2476 24.5645 34.6494 24.9689 33.9658 25.2993C33.2936 25.6297 32.5872 25.8975 31.8467 26.1025C31.1061 26.319 30.3485 26.4728 29.5737 26.564C28.799 26.6665 28.0641 26.7178 27.3691 26.7178C26.2412 26.7178 25.0734 26.6038 23.8657 26.376C22.6694 26.1481 21.4561 25.7778 20.2256 25.2651C19.9521 25.1512 19.8154 24.9518 19.8154 24.667C19.8154 24.4733 19.8838 24.3195 20.0205 24.2056C20.1572 24.0802 20.3053 24.0176 20.4648 24.0176C20.5446 24.0176 20.63 24.0347 20.7212 24.0688C21.7808 24.5132 22.8688 24.8493 23.9854 25.0771C25.1019 25.305 26.2241 25.4189 27.3521 25.4189C28.8901 25.4189 30.2118 25.2708 31.3169 24.9746C32.422 24.6784 33.3278 24.291 34.0342 23.8125C34.752 23.3226 35.2817 22.7757 35.6235 22.1719C35.9653 21.5566 36.1362 20.9357 36.1362 20.3091C36.1362 19.6141 35.9425 18.9704 35.5552 18.3779C35.1792 17.7855 34.638 17.2557 33.9316 16.7886C33.2367 16.3215 32.3993 15.9227 31.4194 15.5923C30.4396 15.2619 29.3516 15.0169 28.1553 14.8574C27.3691 14.9941 26.6058 15.091 25.8652 15.1479C25.1247 15.2049 24.4411 15.2334 23.8145 15.2334H23.4214C23.3416 15.2334 23.2676 15.2277 23.1992 15.2163C22.3789 17.1873 21.3991 18.8906 20.2598 20.3262C19.1318 21.7617 17.9242 22.9523 16.6367 23.8979C15.3607 24.8322 14.0448 25.5272 12.689 25.9829C11.3446 26.4272 10.0514 26.6494 8.80957 26.6494C7.52214 26.6494 6.33724 26.4671 5.25488 26.1025C4.18392 25.7493 3.26107 25.2424 2.48633 24.5815C1.71159 23.9207 1.10775 23.1232 0.674805 22.189C0.241862 21.2433 0.0253906 20.1895 0.0253906 19.0273C0.0253906 17.8197 0.258952 16.5721 0.726074 15.2847C1.20459 13.9858 1.91097 12.6699 2.84521 11.3369C3.73389 10.0837 4.7194 8.96143 5.80176 7.97021C6.88411 6.96761 8.01774 6.09033 9.20264 5.33838C10.3989 4.58643 11.6294 3.94271 12.894 3.40723C14.1587 2.87174 15.4119 2.43311 16.6538 2.09131C17.9071 1.74951 19.1261 1.50456 20.311 1.35645C21.5073 1.19694 22.6296 1.11719 23.6777 1.11719C24.5322 1.11719 25.3468 1.14567 26.1216 1.20264C26.8963 1.2596 27.6369 1.34505 28.3433 1.45898C28.7534 1.00326 29.0838 0.678548 29.3345 0.484863C29.5851 0.279785 29.7275 0.165853 29.7617 0.143066C29.8984 0.074707 30.0181 0.0405273 30.1206 0.0405273C30.2801 0.0405273 30.4225 0.0861003 30.5479 0.177246C30.6732 0.268392 30.7358 0.399414 30.7358 0.570312C30.7358 0.798177 30.6561 0.991862 30.4966 1.15137C30.3371 1.29948 30.1206 1.50456 29.8472 1.7666C31.9321 2.2793 33.5272 3.05404 34.6323 4.09082C35.7375 5.11621 36.29 6.38656 36.29 7.90186C36.29 8.73356 36.1533 9.47982 35.8799 10.1406C35.6064 10.8014 35.2305 11.3825 34.752 11.8838C34.2848 12.3851 33.7323 12.8237 33.0942 13.1997C32.4676 13.5643 31.8011 13.8719 31.0947 14.1226ZM28.1724 13.5586C28.6737 13.4674 29.1864 13.3478 29.7104 13.1997C30.2459 13.0516 30.7643 12.875 31.2656 12.6699C31.7783 12.4535 32.2625 12.2028 32.7183 11.918C33.174 11.6217 33.5671 11.2799 33.8975 10.8926C34.2393 10.4938 34.507 10.0495 34.7007 9.55957C34.9058 9.06966 35.0083 8.51139 35.0083 7.88477C35.0083 6.60872 34.4785 5.55485 33.4189 4.72314C32.3594 3.89144 30.8384 3.2762 28.856 2.87744C28.2863 3.58382 27.7508 4.36426 27.2495 5.21875C26.7482 6.07324 26.2868 6.96191 25.8652 7.88477C25.4437 8.79622 25.062 9.72477 24.7202 10.6704C24.3898 11.6047 24.1164 12.5104 23.8999 13.3877C24.1278 13.3763 24.3385 13.3706 24.5322 13.3706C24.7259 13.3706 24.8911 13.3706 25.0278 13.3706C25.4722 13.3706 25.9564 13.3877 26.4805 13.4219C27.0046 13.4447 27.5685 13.4902 28.1724 13.5586ZM27.4033 2.63818C26.8223 2.55843 26.2241 2.50146 25.6089 2.46729C24.9937 2.43311 24.3499 2.41602 23.6777 2.41602C22.6751 2.41602 21.6099 2.49007 20.4819 2.63818C19.354 2.7863 18.1976 3.01986 17.0127 3.33887C15.8278 3.65788 14.6315 4.07373 13.4238 4.58643C12.2275 5.08773 11.0597 5.69727 9.92041 6.41504C8.79248 7.12142 7.71582 7.94743 6.69043 8.89307C5.66504 9.8387 4.73079 10.904 3.8877 12.0889C3.0332 13.2965 2.38949 14.4871 1.95654 15.6606C1.5236 16.8341 1.30713 17.9507 1.30713 19.0103C1.30713 20.0015 1.48372 20.8901 1.83691 21.6763C2.2015 22.4624 2.71419 23.1289 3.375 23.6758C4.03581 24.2113 4.82764 24.6271 5.75049 24.9233C6.67334 25.2082 7.69303 25.3506 8.80957 25.3506C9.92611 25.3506 11.0882 25.1512 12.2959 24.7524C13.5036 24.3423 14.6828 23.7214 15.8335 22.8896C16.9842 22.0465 18.078 20.987 19.1147 19.7109C20.1515 18.4235 21.0573 16.8968 21.832 15.1309C21.627 15.1309 21.4162 15.0739 21.1997 14.96C20.9832 14.8346 20.875 14.641 20.875 14.3789C20.875 14.1055 21.006 13.9118 21.2681 13.7979C21.5301 13.6725 21.9403 13.57 22.4985 13.4902C22.8062 12.556 23.1195 11.6217 23.4385 10.6875C23.7575 9.75326 24.1107 8.8304 24.498 7.91895C24.8854 7.00749 25.3127 6.11312 25.7798 5.23584C26.2469 4.34717 26.7881 3.48128 27.4033 2.63818ZM51.1582 21.2661C51.0898 21.3914 50.9702 21.6193 50.7993 21.9497C50.6398 22.2801 50.4176 22.6561 50.1328 23.0776C49.8594 23.4878 49.529 23.915 49.1416 24.3594C48.7542 24.8037 48.3099 25.2139 47.8086 25.5898C47.3073 25.9544 46.7433 26.2563 46.1167 26.4956C45.5015 26.7349 44.8293 26.8545 44.1001 26.8545C43.4507 26.8545 42.8753 26.7349 42.374 26.4956C41.8727 26.2677 41.4455 25.943 41.0923 25.5215C40.7391 25.0885 40.4714 24.5815 40.2891 24.0005C40.1068 23.4194 40.0156 22.7757 40.0156 22.0693C40.0156 21.3857 40.1125 20.7477 40.3062 20.1553C40.4998 19.5514 40.7619 19.0273 41.0923 18.583C41.4341 18.1387 41.8271 17.7912 42.2715 17.5405C42.7158 17.2785 43.1886 17.1475 43.6899 17.1475C44.0659 17.1475 44.4077 17.2158 44.7153 17.3525C45.0229 17.4779 45.2793 17.6488 45.4844 17.8652C45.7008 18.0817 45.866 18.321 45.98 18.583C46.1053 18.8451 46.168 19.1071 46.168 19.3691C46.168 19.6198 46.1338 19.8534 46.0654 20.0698C46.0085 20.2863 45.9287 20.48 45.8262 20.6509C45.735 20.8104 45.6268 20.9414 45.5015 21.0439C45.3761 21.1351 45.2508 21.1807 45.1255 21.1807C44.9318 21.1807 44.7723 21.118 44.647 20.9927C44.533 20.8674 44.4761 20.7135 44.4761 20.5312C44.4761 20.4401 44.4932 20.3604 44.5273 20.292C44.5729 20.2236 44.6185 20.1553 44.6641 20.0869C44.721 20.0072 44.7666 19.916 44.8008 19.8135C44.8464 19.6995 44.8691 19.5571 44.8691 19.3862C44.8691 19.147 44.7552 18.9305 44.5273 18.7368C44.3109 18.5431 44.0317 18.4463 43.6899 18.4463C43.3709 18.4463 43.0633 18.5431 42.7671 18.7368C42.4823 18.9305 42.2316 19.1925 42.0151 19.5229C41.7987 19.842 41.6221 20.2236 41.4854 20.668C41.36 21.1009 41.2974 21.5623 41.2974 22.0522C41.2974 22.5194 41.3543 22.9637 41.4683 23.3853C41.5822 23.8068 41.7531 24.1828 41.981 24.5132C42.2088 24.8322 42.4937 25.0885 42.8354 25.2822C43.1886 25.4759 43.6045 25.5728 44.083 25.5728C44.6982 25.5728 45.2679 25.4645 45.792 25.248C46.3161 25.0202 46.7946 24.7354 47.2275 24.3936C47.6605 24.0518 48.0422 23.6815 48.3726 23.2827C48.703 22.8726 48.9821 22.4909 49.21 22.1377C49.4492 21.7731 49.6315 21.4598 49.7568 21.1978C49.8936 20.9243 49.9733 20.7534 49.9961 20.6851C50.0417 20.5711 50.1157 20.4857 50.2183 20.4287C50.3322 20.3604 50.4518 20.3262 50.5771 20.3262C50.7708 20.3262 50.9246 20.3945 51.0386 20.5312C51.1639 20.668 51.2266 20.8218 51.2266 20.9927C51.2266 21.061 51.2038 21.1522 51.1582 21.2661ZM52.7817 12.5845C52.7817 13.0174 52.6279 13.3877 52.3203 13.6953C52.0241 13.9915 51.6595 14.1396 51.2266 14.1396C50.7936 14.1396 50.4233 13.9915 50.1157 13.6953C49.8195 13.3877 49.6714 13.0174 49.6714 12.5845C49.6714 12.368 49.7113 12.1686 49.791 11.9863C49.8708 11.7926 49.979 11.6274 50.1157 11.4907C50.2638 11.3426 50.429 11.2287 50.6113 11.1489C50.805 11.0692 51.0101 11.0293 51.2266 11.0293C51.443 11.0293 51.6424 11.0692 51.8247 11.1489C52.0184 11.2287 52.1836 11.3426 52.3203 11.4907C52.4684 11.6274 52.5824 11.7926 52.6621 11.9863C52.7419 12.1686 52.7817 12.368 52.7817 12.5845ZM50.0132 22.5991C50.0132 20.9585 50.1157 19.3236 50.3208 17.6943C50.3436 17.5348 50.4119 17.3981 50.5259 17.2842C50.6512 17.1589 50.8107 17.0962 51.0044 17.0962C51.1753 17.0962 51.3177 17.1646 51.4316 17.3013C51.5456 17.4266 51.6025 17.5747 51.6025 17.7456C51.6025 17.814 51.5854 18.019 51.5513 18.3608C51.5285 18.7026 51.4943 19.1128 51.4487 19.5913C51.4146 20.0584 51.3804 20.5597 51.3462 21.0952C51.3234 21.6193 51.312 22.1035 51.312 22.5479C51.312 23.1517 51.369 23.6416 51.4829 24.0176C51.6082 24.3822 51.762 24.667 51.9443 24.8721C52.138 25.0771 52.3374 25.2139 52.5425 25.2822C52.759 25.3506 52.964 25.3848 53.1577 25.3848C53.4767 25.3848 53.8071 25.2708 54.1489 25.043C54.4907 24.8151 54.8382 24.4961 55.1914 24.0859C55.556 23.6758 55.9206 23.1859 56.2852 22.6162C56.6497 22.0352 57.0086 21.3914 57.3618 20.6851C57.4188 20.5711 57.4985 20.4857 57.6011 20.4287C57.7036 20.3604 57.8175 20.3262 57.9429 20.3262C58.1252 20.3262 58.2733 20.3945 58.3872 20.5312C58.5125 20.668 58.5752 20.8161 58.5752 20.9756C58.5752 21.0895 58.5524 21.1864 58.5068 21.2661C58.3701 21.5282 58.1992 21.8472 57.9941 22.2231C57.7891 22.5991 57.5555 22.9865 57.2935 23.3853C57.0314 23.784 56.7409 24.1828 56.4219 24.5815C56.1143 24.9689 55.7839 25.3221 55.4307 25.6411C55.0775 25.9487 54.7072 26.1994 54.3198 26.3931C53.9325 26.5868 53.5394 26.6836 53.1406 26.6836C52.6279 26.6836 52.1779 26.5754 51.7905 26.3589C51.4032 26.1424 51.0728 25.8519 50.7993 25.4873C50.5373 25.1227 50.3379 24.6955 50.2012 24.2056C50.0758 23.7043 50.0132 23.1688 50.0132 22.5991ZM51.8247 12.5845C51.8247 12.425 51.762 12.2882 51.6367 12.1743C51.5228 12.049 51.3861 11.9863 51.2266 11.9863C51.0671 11.9863 50.9303 12.049 50.8164 12.1743C50.7025 12.2882 50.6455 12.425 50.6455 12.5845C50.6455 12.744 50.7025 12.8807 50.8164 12.9946C50.9303 13.1086 51.0671 13.1655 51.2266 13.1655C51.3861 13.1655 51.5228 13.1086 51.6367 12.9946C51.762 12.8807 51.8247 12.744 51.8247 12.5845ZM58.6777 26.8374C59.5208 26.4614 60.2842 26.0285 60.9678 25.5386C61.6628 25.0487 62.278 24.536 62.8135 24.0005C63.3604 23.4536 63.8218 22.901 64.1978 22.3428C64.5851 21.7731 64.8927 21.2319 65.1206 20.7192C65.2231 20.4686 65.4168 20.3433 65.7017 20.3433C65.8953 20.3433 66.0492 20.4116 66.1631 20.5483C66.2884 20.6737 66.3511 20.8161 66.3511 20.9756C66.3511 21.0667 66.334 21.1522 66.2998 21.2319C66.0492 21.7902 65.7301 22.3713 65.3428 22.9751C64.9554 23.5675 64.4826 24.1543 63.9243 24.7354C63.3774 25.305 62.7337 25.8576 61.9932 26.3931C61.2526 26.9285 60.4038 27.4185 59.4468 27.8628C60.062 28.5008 60.5975 29.2072 61.0532 29.9819C61.509 30.7681 61.8849 31.5827 62.1812 32.4258C62.4888 33.2689 62.7166 34.1177 62.8647 34.9722C63.0243 35.8381 63.104 36.6641 63.104 37.4502C63.104 38.168 63.0356 38.8402 62.8989 39.4668C62.7736 40.1048 62.5799 40.6574 62.3179 41.1245C62.0672 41.5916 61.7596 41.9562 61.395 42.2183C61.0304 42.4917 60.6146 42.6284 60.1475 42.6284C59.4639 42.6284 58.9341 42.3721 58.5581 41.8594C58.1821 41.3581 57.903 40.6574 57.7207 39.7573C57.5498 38.8687 57.4473 37.8148 57.4131 36.5957C57.3903 35.388 57.3789 34.0721 57.3789 32.6479C57.3789 31.9416 57.3789 31.1156 57.3789 30.1699C57.3789 29.2357 57.3789 28.2274 57.3789 27.145C57.3903 26.0741 57.396 24.9518 57.396 23.7783C57.4074 22.5934 57.4188 21.4085 57.4302 20.2236C57.4416 19.0387 57.453 17.8766 57.4644 16.7373C57.4757 15.5866 57.4928 14.4985 57.5156 13.4731C57.5498 11.5135 57.6182 9.76465 57.7207 8.22656C57.8232 6.68848 57.9884 5.38965 58.2163 4.33008C58.4442 3.27051 58.7518 2.46729 59.1392 1.92041C59.5379 1.36214 60.0392 1.08301 60.6431 1.08301C61.1216 1.08301 61.526 1.21973 61.8564 1.49316C62.1868 1.75521 62.4546 2.1141 62.6597 2.56982C62.8647 3.01416 63.0129 3.53825 63.104 4.14209C63.1951 4.74593 63.2407 5.37826 63.2407 6.03906C63.2407 7.42904 63.1211 8.77344 62.8818 10.0723C62.6426 11.3711 62.3179 12.63 61.9077 13.8491C61.4976 15.0682 61.0133 16.2588 60.4551 17.4209C59.9082 18.583 59.3215 19.728 58.6948 20.856C58.6948 21.3231 58.6948 21.8301 58.6948 22.377C58.6948 22.9124 58.6948 23.4536 58.6948 24.0005C58.6948 24.536 58.6891 25.0544 58.6777 25.5557C58.6777 26.0456 58.6777 26.4728 58.6777 26.8374ZM58.729 18.2241C59.1961 17.3468 59.6234 16.424 60.0107 15.4556C60.4095 14.4757 60.7513 13.4674 61.0361 12.4307C61.321 11.3939 61.5431 10.3343 61.7026 9.25195C61.8621 8.1696 61.9419 7.08154 61.9419 5.98779C61.9419 5.44092 61.9134 4.94531 61.8564 4.50098C61.8109 4.05664 61.7311 3.68066 61.6172 3.37305C61.5146 3.05404 61.3779 2.80908 61.207 2.63818C61.0475 2.45589 60.8595 2.36475 60.6431 2.36475C60.4152 2.36475 60.2158 2.50146 60.0449 2.7749C59.874 3.04834 59.7259 3.41292 59.6006 3.86865C59.4753 4.32438 59.367 4.84847 59.2759 5.44092C59.1961 6.03337 59.1278 6.6543 59.0708 7.30371C59.0138 7.94173 58.9683 8.58545 58.9341 9.23486C58.8999 9.87288 58.8714 10.4767 58.8486 11.0464C58.8372 11.6047 58.8258 12.1003 58.8145 12.5332C58.8145 12.9661 58.8145 13.2909 58.8145 13.5073C58.8031 13.9631 58.7917 14.3675 58.7803 14.7207C58.7803 15.0739 58.7746 15.4214 58.7632 15.7632C58.7518 16.105 58.7404 16.4696 58.729 16.8569C58.729 17.2443 58.729 17.7 58.729 18.2241ZM58.6777 28.9395C58.6777 29.6572 58.672 30.3237 58.6606 30.939C58.6606 31.5656 58.6606 32.1353 58.6606 32.6479C58.6606 33.7075 58.6663 34.7557 58.6777 35.7925C58.6891 36.8293 58.7404 37.7578 58.8315 38.5781C58.9341 39.4098 59.0822 40.0763 59.2759 40.5776C59.481 41.0903 59.7715 41.3467 60.1475 41.3467C60.4893 41.3467 60.7684 41.1929 60.9849 40.8853C61.2013 40.5776 61.3665 40.2131 61.4805 39.7915C61.6058 39.37 61.6912 38.937 61.7368 38.4927C61.7824 38.0597 61.8052 37.7065 61.8052 37.4331C61.8052 36.7381 61.7368 36.009 61.6001 35.2456C61.4748 34.4823 61.2754 33.7246 61.002 32.9727C60.7399 32.2321 60.4152 31.5143 60.0278 30.8193C59.6405 30.1243 59.1904 29.4977 58.6777 28.9395Z" fill="#8D7979"/>
</svg>
