<svg width="76" height="50" viewBox="0 0 76 50" fill="none" xmlns="http://www.w3.org/2000/svg">
<path d="M35.6797 16.4258C36.7995 16.7383 37.75 17.0964 38.5312 17.5C39.3255 17.9036 39.9896 18.3268 40.5234 18.7695C41.0703 19.1992 41.5 19.6419 41.8125 20.0977C42.125 20.5534 42.3659 20.9896 42.5352 21.4062C42.7044 21.8229 42.8086 22.2135 42.8477 22.5781C42.8997 22.9297 42.9258 23.2292 42.9258 23.4766C42.9258 24.388 42.75 25.2018 42.3984 25.918C42.0599 26.6341 41.5977 27.2656 41.0117 27.8125C40.4258 28.3594 39.7422 28.8216 38.9609 29.1992C38.1927 29.5768 37.3854 29.8828 36.5391 30.1172C35.6927 30.3646 34.8268 30.5404 33.9414 30.6445C33.056 30.7617 32.2161 30.8203 31.4219 30.8203C30.1328 30.8203 28.7982 30.6901 27.418 30.4297C26.0508 30.1693 24.6641 29.7461 23.2578 29.1602C22.9453 29.0299 22.7891 28.8021 22.7891 28.4766C22.7891 28.2552 22.8672 28.0794 23.0234 27.9492C23.1797 27.806 23.349 27.7344 23.5312 27.7344C23.6224 27.7344 23.7201 27.7539 23.8242 27.793C25.0352 28.3008 26.2786 28.6849 27.5547 28.9453C28.8307 29.2057 30.1133 29.3359 31.4023 29.3359C33.1602 29.3359 34.6706 29.1667 35.9336 28.8281C37.1966 28.4896 38.2318 28.0469 39.0391 27.5C39.8594 26.9401 40.4648 26.3151 40.8555 25.625C41.2461 24.9219 41.4414 24.2122 41.4414 23.4961C41.4414 22.7018 41.2201 21.9661 40.7773 21.2891C40.3477 20.612 39.7292 20.0065 38.9219 19.4727C38.1276 18.9388 37.1706 18.4831 36.0508 18.1055C34.931 17.7279 33.6875 17.4479 32.3203 17.2656C31.4219 17.4219 30.5495 17.5326 29.7031 17.5977C28.8568 17.6628 28.0755 17.6953 27.3594 17.6953H26.9102C26.819 17.6953 26.7344 17.6888 26.6562 17.6758C25.7188 19.9284 24.599 21.875 23.2969 23.5156C22.0078 25.1562 20.6276 26.5169 19.1562 27.5977C17.6979 28.6654 16.194 29.4596 14.6445 29.9805C13.1081 30.4883 11.6302 30.7422 10.2109 30.7422C8.73958 30.7422 7.38542 30.5339 6.14844 30.1172C4.92448 29.7135 3.86979 29.1341 2.98438 28.3789C2.09896 27.6237 1.40885 26.7122 0.914062 25.6445C0.419271 24.5638 0.171875 23.3594 0.171875 22.0312C0.171875 20.651 0.438802 19.2253 0.972656 17.7539C1.51953 16.2695 2.32682 14.7656 3.39453 13.2422C4.41016 11.8099 5.53646 10.5273 6.77344 9.39453C8.01042 8.2487 9.30599 7.24609 10.6602 6.38672C12.0273 5.52734 13.4336 4.79167 14.8789 4.17969C16.3242 3.56771 17.7565 3.06641 19.1758 2.67578C20.6081 2.28516 22.0013 2.00521 23.3555 1.83594C24.7227 1.65365 26.0052 1.5625 27.2031 1.5625C28.1797 1.5625 29.1107 1.59505 29.9961 1.66016C30.8815 1.72526 31.7279 1.82292 32.5352 1.95312C33.0039 1.43229 33.3815 1.0612 33.668 0.839844C33.9544 0.605469 34.1172 0.47526 34.1562 0.449219C34.3125 0.371094 34.4492 0.332031 34.5664 0.332031C34.7487 0.332031 34.9115 0.384115 35.0547 0.488281C35.1979 0.592448 35.2695 0.742188 35.2695 0.9375C35.2695 1.19792 35.1784 1.41927 34.9961 1.60156C34.8138 1.77083 34.5664 2.00521 34.2539 2.30469C36.6367 2.89062 38.4596 3.77604 39.7227 4.96094C40.9857 6.13281 41.6172 7.58464 41.6172 9.31641C41.6172 10.2669 41.4609 11.1198 41.1484 11.875C40.8359 12.6302 40.4062 13.2943 39.8594 13.8672C39.3255 14.4401 38.694 14.9414 37.9648 15.3711C37.2487 15.7878 36.487 16.1393 35.6797 16.4258ZM32.3398 15.7812C32.9128 15.6771 33.4987 15.5404 34.0977 15.3711C34.7096 15.2018 35.3021 15 35.875 14.7656C36.4609 14.5182 37.0143 14.2318 37.5352 13.9062C38.056 13.5677 38.5052 13.1771 38.8828 12.7344C39.2734 12.2786 39.5794 11.7708 39.8008 11.2109C40.0352 10.651 40.1523 10.013 40.1523 9.29688C40.1523 7.83854 39.5469 6.63411 38.3359 5.68359C37.125 4.73307 35.3867 4.02995 33.1211 3.57422C32.4701 4.38151 31.8581 5.27344 31.2852 6.25C30.7122 7.22656 30.1849 8.24219 29.7031 9.29688C29.2214 10.3385 28.7852 11.3997 28.3945 12.4805C28.0169 13.5482 27.7044 14.5833 27.457 15.5859C27.7174 15.5729 27.9583 15.5664 28.1797 15.5664C28.401 15.5664 28.5898 15.5664 28.7461 15.5664C29.2539 15.5664 29.8073 15.5859 30.4062 15.625C31.0052 15.651 31.6497 15.7031 32.3398 15.7812ZM31.4609 3.30078C30.7969 3.20964 30.1133 3.14453 29.4102 3.10547C28.707 3.06641 27.9714 3.04688 27.2031 3.04688C26.0573 3.04688 24.8398 3.13151 23.5508 3.30078C22.2617 3.47005 20.9401 3.73698 19.5859 4.10156C18.2318 4.46615 16.8646 4.94141 15.4844 5.52734C14.1172 6.10026 12.7826 6.79688 11.4805 7.61719C10.1914 8.42448 8.96094 9.36849 7.78906 10.4492C6.61719 11.5299 5.54948 12.7474 4.58594 14.1016C3.60938 15.4818 2.8737 16.8424 2.37891 18.1836C1.88411 19.5247 1.63672 20.8008 1.63672 22.0117C1.63672 23.1445 1.83854 24.1602 2.24219 25.0586C2.65885 25.957 3.24479 26.7188 4 27.3438C4.75521 27.9557 5.66016 28.431 6.71484 28.7695C7.76953 29.0951 8.9349 29.2578 10.2109 29.2578C11.487 29.2578 12.8151 29.0299 14.1953 28.5742C15.5755 28.1055 16.9232 27.3958 18.2383 26.4453C19.5534 25.4818 20.8034 24.2708 21.9883 22.8125C23.1732 21.3411 24.2083 19.5964 25.0938 17.5781C24.8594 17.5781 24.6185 17.513 24.3711 17.3828C24.1237 17.2396 24 17.0182 24 16.7188C24 16.4062 24.1497 16.1849 24.4492 16.0547C24.7487 15.9115 25.2174 15.7943 25.8555 15.7031C26.207 14.6354 26.5651 13.5677 26.9297 12.5C27.2943 11.4323 27.6979 10.3776 28.1406 9.33594C28.5833 8.29427 29.0716 7.27214 29.6055 6.26953C30.1393 5.25391 30.7578 4.26432 31.4609 3.30078ZM58.6094 24.5898C58.5312 24.7331 58.3945 24.9935 58.1992 25.3711C58.0169 25.7487 57.763 26.1784 57.4375 26.6602C57.125 27.1289 56.7474 27.6172 56.3047 28.125C55.862 28.6328 55.3542 29.1016 54.7812 29.5312C54.2083 29.9479 53.5638 30.293 52.8477 30.5664C52.1445 30.8398 51.3763 30.9766 50.543 30.9766C49.8008 30.9766 49.1432 30.8398 48.5703 30.5664C47.9974 30.306 47.5091 29.9349 47.1055 29.4531C46.7018 28.9583 46.3958 28.3789 46.1875 27.7148C45.9792 27.0508 45.875 26.3151 45.875 25.5078C45.875 24.7266 45.9857 23.9974 46.207 23.3203C46.4284 22.6302 46.7279 22.0312 47.1055 21.5234C47.4961 21.0156 47.9453 20.6185 48.4531 20.332C48.9609 20.0326 49.5013 19.8828 50.0742 19.8828C50.5039 19.8828 50.8945 19.9609 51.2461 20.1172C51.5977 20.2604 51.8906 20.4557 52.125 20.7031C52.3724 20.9505 52.5612 21.224 52.6914 21.5234C52.8346 21.8229 52.9062 22.1224 52.9062 22.4219C52.9062 22.7083 52.8672 22.9753 52.7891 23.2227C52.724 23.4701 52.6328 23.6914 52.5156 23.8867C52.4115 24.069 52.2878 24.2188 52.1445 24.3359C52.0013 24.4401 51.8581 24.4922 51.7148 24.4922C51.4935 24.4922 51.3112 24.4206 51.168 24.2773C51.0378 24.1341 50.9727 23.9583 50.9727 23.75C50.9727 23.6458 50.9922 23.5547 51.0312 23.4766C51.0833 23.3984 51.1354 23.3203 51.1875 23.2422C51.2526 23.151 51.3047 23.0469 51.3438 22.9297C51.3958 22.7995 51.4219 22.6367 51.4219 22.4414C51.4219 22.168 51.2917 21.9206 51.0312 21.6992C50.7839 21.4779 50.4648 21.3672 50.0742 21.3672C49.7096 21.3672 49.3581 21.4779 49.0195 21.6992C48.694 21.9206 48.4076 22.2201 48.1602 22.5977C47.9128 22.9622 47.7109 23.3984 47.5547 23.9062C47.4115 24.401 47.3398 24.9284 47.3398 25.4883C47.3398 26.0221 47.4049 26.5299 47.5352 27.0117C47.6654 27.4935 47.8607 27.9232 48.1211 28.3008C48.3815 28.6654 48.707 28.9583 49.0977 29.1797C49.5013 29.401 49.9766 29.5117 50.5234 29.5117C51.2266 29.5117 51.8776 29.388 52.4766 29.1406C53.0755 28.8802 53.6224 28.5547 54.1172 28.1641C54.612 27.7734 55.0482 27.3503 55.4258 26.8945C55.8034 26.4258 56.1224 25.9896 56.3828 25.5859C56.6562 25.1693 56.8646 24.8112 57.0078 24.5117C57.1641 24.1992 57.2552 24.0039 57.2812 23.9258C57.3333 23.7956 57.418 23.6979 57.5352 23.6328C57.6654 23.5547 57.8021 23.5156 57.9453 23.5156C58.1667 23.5156 58.3424 23.5938 58.4727 23.75C58.6159 23.9062 58.6875 24.082 58.6875 24.2773C58.6875 24.3555 58.6615 24.4596 58.6094 24.5898ZM60.4648 14.668C60.4648 15.1628 60.2891 15.5859 59.9375 15.9375C59.599 16.276 59.1823 16.4453 58.6875 16.4453C58.1927 16.4453 57.7695 16.276 57.418 15.9375C57.0794 15.5859 56.9102 15.1628 56.9102 14.668C56.9102 14.4206 56.9557 14.1927 57.0469 13.9844C57.138 13.763 57.2617 13.5742 57.418 13.418C57.5872 13.2487 57.776 13.1185 57.9844 13.0273C58.2057 12.9362 58.4401 12.8906 58.6875 12.8906C58.9349 12.8906 59.1628 12.9362 59.3711 13.0273C59.5924 13.1185 59.7812 13.2487 59.9375 13.418C60.1068 13.5742 60.237 13.763 60.3281 13.9844C60.4193 14.1927 60.4648 14.4206 60.4648 14.668ZM57.3008 26.1133C57.3008 24.2383 57.418 22.3698 57.6523 20.5078C57.6784 20.3255 57.7565 20.1693 57.8867 20.0391C58.0299 19.8958 58.2122 19.8242 58.4336 19.8242C58.6289 19.8242 58.7917 19.9023 58.9219 20.0586C59.0521 20.2018 59.1172 20.3711 59.1172 20.5664C59.1172 20.6445 59.0977 20.8789 59.0586 21.2695C59.0326 21.6602 58.9935 22.1289 58.9414 22.6758C58.9023 23.2096 58.8633 23.7826 58.8242 24.3945C58.7982 24.9935 58.7852 25.5469 58.7852 26.0547C58.7852 26.7448 58.8503 27.3047 58.9805 27.7344C59.1237 28.151 59.2995 28.4766 59.5078 28.7109C59.7292 28.9453 59.957 29.1016 60.1914 29.1797C60.4388 29.2578 60.6732 29.2969 60.8945 29.2969C61.2591 29.2969 61.6367 29.1667 62.0273 28.9062C62.418 28.6458 62.8151 28.2812 63.2188 27.8125C63.6354 27.3438 64.0521 26.7839 64.4688 26.1328C64.8854 25.4688 65.2956 24.7331 65.6992 23.9258C65.7643 23.7956 65.8555 23.6979 65.9727 23.6328C66.0898 23.5547 66.2201 23.5156 66.3633 23.5156C66.5716 23.5156 66.7409 23.5938 66.8711 23.75C67.0143 23.9062 67.0859 24.0755 67.0859 24.2578C67.0859 24.388 67.0599 24.4987 67.0078 24.5898C66.8516 24.8893 66.6562 25.2539 66.4219 25.6836C66.1875 26.1133 65.9206 26.556 65.6211 27.0117C65.3216 27.4674 64.9896 27.9232 64.625 28.3789C64.2734 28.8216 63.8958 29.2253 63.4922 29.5898C63.0885 29.9414 62.6654 30.2279 62.2227 30.4492C61.7799 30.6706 61.3307 30.7812 60.875 30.7812C60.2891 30.7812 59.7747 30.6576 59.332 30.4102C58.8893 30.1628 58.5117 29.8307 58.1992 29.4141C57.8997 28.9974 57.6719 28.5091 57.5156 27.9492C57.3724 27.3763 57.3008 26.7643 57.3008 26.1133ZM59.3711 14.668C59.3711 14.4857 59.2995 14.3294 59.1562 14.1992C59.026 14.056 58.8698 13.9844 58.6875 13.9844C58.5052 13.9844 58.349 14.056 58.2188 14.1992C58.0885 14.3294 58.0234 14.4857 58.0234 14.668C58.0234 14.8503 58.0885 15.0065 58.2188 15.1367C58.349 15.2669 58.5052 15.332 58.6875 15.332C58.8698 15.332 59.026 15.2669 59.1562 15.1367C59.2995 15.0065 59.3711 14.8503 59.3711 14.668ZM67.2031 30.957C68.1667 30.5273 69.0391 30.0326 69.8203 29.4727C70.6146 28.9128 71.3177 28.3268 71.9297 27.7148C72.5547 27.0898 73.082 26.4583 73.5117 25.8203C73.9544 25.1693 74.306 24.5508 74.5664 23.9648C74.6836 23.6784 74.9049 23.5352 75.2305 23.5352C75.4518 23.5352 75.6276 23.6133 75.7578 23.7695C75.901 23.9128 75.9727 24.0755 75.9727 24.2578C75.9727 24.362 75.9531 24.4596 75.9141 24.5508C75.6276 25.1888 75.263 25.8529 74.8203 26.543C74.3776 27.2201 73.8372 27.8906 73.1992 28.5547C72.5742 29.2057 71.8385 29.8372 70.9922 30.4492C70.1458 31.0612 69.1758 31.6211 68.082 32.1289C68.7852 32.8581 69.3971 33.6654 69.918 34.5508C70.4388 35.4492 70.8685 36.3802 71.207 37.3438C71.5586 38.3073 71.819 39.2773 71.9883 40.2539C72.1706 41.2435 72.2617 42.1875 72.2617 43.0859C72.2617 43.9062 72.1836 44.6745 72.0273 45.3906C71.8841 46.1198 71.6628 46.7513 71.3633 47.2852C71.0768 47.819 70.7253 48.2357 70.3086 48.5352C69.8919 48.8477 69.4167 49.0039 68.8828 49.0039C68.1016 49.0039 67.4961 48.7109 67.0664 48.125C66.6367 47.5521 66.3177 46.7513 66.1094 45.7227C65.9141 44.707 65.7969 43.5026 65.7578 42.1094C65.7318 40.7292 65.7188 39.2253 65.7188 37.5977C65.7188 36.7904 65.7188 35.8464 65.7188 34.7656C65.7188 33.6979 65.7188 32.5456 65.7188 31.3086C65.7318 30.0846 65.7383 28.8021 65.7383 27.4609C65.7513 26.1068 65.7643 24.7526 65.7773 23.3984C65.7904 22.0443 65.8034 20.7161 65.8164 19.4141C65.8294 18.099 65.849 16.8555 65.875 15.6836C65.9141 13.444 65.9922 11.4453 66.1094 9.6875C66.2266 7.92969 66.4154 6.44531 66.6758 5.23438C66.9362 4.02344 67.2878 3.10547 67.7305 2.48047C68.1862 1.84245 68.7591 1.52344 69.4492 1.52344C69.9961 1.52344 70.4583 1.67969 70.8359 1.99219C71.2135 2.29167 71.5195 2.70182 71.7539 3.22266C71.9883 3.73047 72.1576 4.32943 72.2617 5.01953C72.3659 5.70964 72.418 6.43229 72.418 7.1875C72.418 8.77604 72.2812 10.3125 72.0078 11.7969C71.7344 13.2812 71.3633 14.7201 70.8945 16.1133C70.4258 17.5065 69.8724 18.8672 69.2344 20.1953C68.6094 21.5234 67.9388 22.832 67.2227 24.1211C67.2227 24.6549 67.2227 25.2344 67.2227 25.8594C67.2227 26.4714 67.2227 27.0898 67.2227 27.7148C67.2227 28.3268 67.2161 28.9193 67.2031 29.4922C67.2031 30.0521 67.2031 30.5404 67.2031 30.957ZM67.2617 21.1133C67.7956 20.1107 68.2839 19.056 68.7266 17.9492C69.1823 16.8294 69.5729 15.6771 69.8984 14.4922C70.224 13.3073 70.4779 12.0964 70.6602 10.8594C70.8424 9.6224 70.9336 8.37891 70.9336 7.12891C70.9336 6.50391 70.901 5.9375 70.8359 5.42969C70.7839 4.92188 70.6927 4.49219 70.5625 4.14062C70.4453 3.77604 70.2891 3.49609 70.0938 3.30078C69.9115 3.09245 69.6966 2.98828 69.4492 2.98828C69.1888 2.98828 68.9609 3.14453 68.7656 3.45703C68.5703 3.76953 68.401 4.1862 68.2578 4.70703C68.1146 5.22786 67.9909 5.82682 67.8867 6.50391C67.7956 7.18099 67.7174 7.89062 67.6523 8.63281C67.5872 9.36198 67.5352 10.0977 67.4961 10.8398C67.457 11.569 67.4245 12.2591 67.3984 12.9102C67.3854 13.5482 67.3724 14.1146 67.3594 14.6094C67.3594 15.1042 67.3594 15.4753 67.3594 15.7227C67.3464 16.2435 67.3333 16.7057 67.3203 17.1094C67.3203 17.513 67.3138 17.9102 67.3008 18.3008C67.2878 18.6914 67.2747 19.1081 67.2617 19.5508C67.2617 19.9935 67.2617 20.5143 67.2617 21.1133ZM67.2031 33.3594C67.2031 34.1797 67.1966 34.9414 67.1836 35.6445C67.1836 36.3607 67.1836 37.0117 67.1836 37.5977C67.1836 38.8086 67.1901 40.0065 67.2031 41.1914C67.2161 42.3763 67.2747 43.4375 67.3789 44.375C67.4961 45.3255 67.6654 46.0872 67.8867 46.6602C68.1211 47.2461 68.4531 47.5391 68.8828 47.5391C69.2734 47.5391 69.5924 47.3633 69.8398 47.0117C70.0872 46.6602 70.276 46.2435 70.4062 45.7617C70.5495 45.2799 70.6471 44.7852 70.6992 44.2773C70.7513 43.7826 70.7773 43.3789 70.7773 43.0664C70.7773 42.2721 70.6992 41.4388 70.543 40.5664C70.3997 39.694 70.1719 38.8281 69.8594 37.9688C69.5599 37.1224 69.1888 36.3021 68.7461 35.5078C68.3034 34.7135 67.7891 33.9974 67.2031 33.3594Z" fill="white"/>
</svg>
